{"title":"The.Scorpion.King.3.Battle.for.Redemption.2012.720p.BRRip.x264.F","uid":6913298,"size":2694417815,"categoryP":"video","categoryS":"hd___movies","magnet":"?xt=urn:btih:09c84e9474bff9cadb16529f003c720d53219401&amp;dn=The.Scorpion.King.3.Battle.for.Redemption.2012.720p.BRRip.x264.F&amp;tr=udp%3A%2F%2Ftracker.openbittorrent.com%3A80&amp;tr=udp%3A%2F%2Fopen.demonii.com%3A1337&amp;tr=udp%3A%2F%2Ftracker.coppersurfer.tk%3A6969&amp;tr=udp%3A%2F%2Fexodus.desync.com%3A6969","seeders":0,"leechers":0,"uploader":".BONE.","files":8,"time":1324929576,"description":"Genre:Action | Adventure | Fantasy\nLanguage:English\n &lt;a href=&quot;\nhttp://www.imdb.com/title/tt1781896/&quot; rel=&quot;nofollow&quot; target=&quot;_NEW&quot;&gt;\nhttp://www.imdb.com/title/tt1781896/&lt;/a&gt;\n\nSource:720p.Bluray.x264.DTS-HDChina Thanks!\n\nFormat : MPEG-4\nFormat profile : Base Media\nCodec ID : isom\nFile size : 2.51 GiB\nDuration : 1h 45mn\nOverall bit rate : 3 409 Kbps\n\nVideo\nID : 1\nFormat : AVC\nFormat/Info : Advanced Video Codec\nFormat profile : &lt;a class=&quot;__cf_email__&quot; href=&quot;/cdn-cgi/l/email-protection&quot; data-cfemail=&quot;7e361719163e324b504f&quot;&gt;[email&amp;#160;protected]&lt;/a&gt;&lt;script cf-hash='f9e31' type=&quot;text/javascript&quot;&gt;\n/* &lt;![CDATA[ */!function(){try{var t=&quot;currentScript&quot;in document?document.currentScript:function(){for(var t=document.getElementsByTagName(&quot;script&quot;),e=t.length;e--;)if(t[e].getAttribute(&quot;cf-hash&quot;))return t[e]}();if(t&amp;&amp;t.previousSibling){var e,r,n,i,c=t.previousSibling,a=c.getAttribute(&quot;data-cfemail&quot;);if(a){for(e=&quot;&quot;,r=parseInt(a.substr(0,2),16),n=2;a.length-n;n+=2)i=parseInt(a.substr(n,2),16)^r,e+=String.fromCharCode(i);e=document.createTextNode(e),c.parentNode.replaceChild(e,c)}}}catch(u){}}();/* ]]&gt; */&lt;/script&gt;\nFormat settings, CABAC : Yes\nFormat settings, ReFrames : 3 frames\nCodec ID : avc1\nCodec ID/Info : Advanced Video Coding\nDuration : 1h 45mn\nBit rate mode : Variable\nBit rate : 3 000 Kbps\nMaximum bit rate : 15.7 Mbps\nWidth : 1 280 pixels\nHeight : 720 pixels\nDisplay aspect ratio : 16:9\nFrame rate mode : Constant\nFrame rate : 23.976 fps\nColor space : YUV\nChroma subsampling : 4:2:0\nBit depth : 8 bits\nScan type : Progressive\nBits/(Pixel*Frame) : 0.136\nStream size : 2.17 GiB (87%)\nWriting library : x264\n\nAudio\nID : 2\nFormat : AAC\nFormat/Info : Advanced Audio Codec\nFormat version : Version 4\nFormat profile : LC\nFormat settings, SBR : No\nCodec ID : 40\nDuration : 1h 45mn\nBit rate mode : Variable\nBit rate : 447 Kbps\nMaximum bit rate : 495 Kbps\nChannel(s) : 6 channels\nChannel positions : Front: L C R, Side: L R, LFE\nSampling rate : 48.0 KHz\nStream size : 336 MiB (13%)\n\n\nPlot:\nSince his triumphant rise to power in the original blockbuster The Scorpion King,\nMathayus' kingdom has fallen and he's lost his queen to plague. Now an assassin\nfor hire, he must defend a kingdom from an evil tyrant and his ghost warriors\nfor the chance to regain the power and glory he once knew.\n\n","torrent":{"xt":"urn:btih:09c84e9474bff9cadb16529f003c720d53219401","amp;dn":"The.Scorpion.King.3.Battle.for.Redemption.2012.720p.BRRip.x264.F","amp;tr":["udp%3A%2F%2Ftracker.openbittorrent.com%3A80","udp%3A%2F%2Fopen.demonii.com%3A1337","udp%3A%2F%2Ftracker.coppersurfer.tk%3A6969","udp%3A%2F%2Fexodus.desync.com%3A6969"],"infoHash":"09c84e9474bff9cadb16529f003c720d53219401","infoHashBuffer":{"type":"Buffer","data":[9,200,78,148,116,191,249,202,219,22,82,159,0,60,114,13,83,33,148,1]},"announce":[],"urlList":[]}}